<?xml version="1.0" encoding="UTF-8"?>
<!DOCTYPE svg PUBLIC "-//W3C//DTD SVG 1.1//EN" "http://www.w3.org/Graphics/SVG/1.1/DTD/svg11.dtd">
<!-- Creator: CorelDRAW 2018 (64-Bit Evaluation Version) -->
<svg xmlns="http://www.w3.org/2000/svg" xml:space="preserve" width="270.933mm" height="203.2mm" version="1.1" style="shape-rendering:geometricPrecision; text-rendering:geometricPrecision; image-rendering:optimizeQuality; fill-rule:evenodd; clip-rule:evenodd"
viewBox="0 0 27093.32 20320"
 xmlns:xlink="http://www.w3.org/1999/xlink">
 <defs>
  <style type="text/css">
   <![CDATA[
    .fil3 {fill:black}
    .fil1 {fill:#006DBA}
    .fil2 {fill:#0096D8}
    .fil4 {fill:#0098D9}
    .fil0 {fill:white}
   ]]>
  </style>
 </defs>
 <g id="Layer_x0020_1">
  <metadata id="CorelCorpID_0Corel-Layer"/>
  <g id="_2412080327984">
   <rect class="fil0" x="8838.34" y="6871.87" width="9065.11" height="9581.79"/>
   <g>
    <path class="fil1" d="M13546.56 16554l-638.41 -171.3c-77.67,-22.2 -139.15,-43.14 -211.43,-61.49l-855.23 -236.64c-152.32,-41.53 -274.95,-74.37 -429.23,-116.67l-640.79 -178.09c-77.81,-20.24 -123.96,-42.72 -210.8,-62.19l-425.94 -120.04c0,-232.16 -105.67,-993.76 -109.24,-1255.68 -2.95,-213.95 -45.67,-427.76 -54.63,-636.94l-36.14 -473.49c-2.17,-89.58 -16.6,-84.46 -18.35,-163.67 520.13,0 1046.7,7.99 1565.99,-1.05 218.5,-3.85 125.92,38.24 147.21,234.96 25.42,234.96 61.84,981.01 88.31,1094.67 75.15,1.68 179.07,34.74 238.74,52.46l1594.21 438.96 -3.99 -2620.82 -3703.23 0c0,-132.92 -33.2,-305.27 -36.56,-436.58 -4.13,-159.53 -26.47,-282.86 -36.9,-436.37l-72.13 -874.22c97.55,-22.76 2632.36,-1307.36 2990.37,-1486.29 69.89,-34.95 152.53,-58.56 194.05,-115.28l-3330.02 0 -106.24 -1240.56c-8.9,-84.87 -36.07,-370.33 -27.39,-415.64l4124.97 -10.08 -1.05 -1601.85 5310.88 2.1c-159.81,1920.43 -332.93,3844.36 -511.58,5759.04 -89.29,956.93 -156.17,1921.42 -255.69,2876.17 -37.11,356.25 -215.27,2727.48 -260.24,2850.73l-4282.74 1158.97 3.22 -1753.12zm-5468.04 1383.21c78.44,41.53 383.08,115.9 505.84,149.24l2216.87 621.96c462.63,152.18 1255.68,329.08 1706.05,477.62l1033.4 286.57 845.49 -231.67c61.99,-18.56 120.67,-29.27 172.7,-45.66 495.9,-156.24 1248.05,-327.26 1719.57,-482.31 112.41,-36.91 223.83,-65.69 341.76,-94.97 74.66,-18.56 99.51,-29.97 167.94,-50.42l1878.82 -523.28c98.4,-28.93 265.49,-63.45 347.85,-107.08l207.86 -2522.15c22.13,-148.4 14.84,-272.49 33.82,-421.17 34.6,-271.66 38.24,-552.84 78.23,-831.71 26.82,-186.78 29.62,-554.73 70.03,-839.97 20.87,-147.42 14.99,-273.76 31.3,-423.69 13.52,-124.66 21.79,-276.21 41.46,-413.54 29.21,-203.02 37.12,-571.19 75.57,-834.37 26.47,-181.03 32.21,-581.27 72.76,-855.44 20.59,-138.81 13.17,-283.01 31.09,-423.98 32.71,-258.42 36.28,-561.31 75.36,-834.58 58.48,-408.92 88.52,-1251.76 143.01,-1676.99 16.45,-128.65 18.06,-272.43 33.89,-421.11 5.32,-50.14 11.98,-129.98 20.66,-197.7 66.74,-517.26 94.47,-1360.8 163.67,-1892.91l67.72 -860.48 -13229.15 0c0,161.7 14.5,291.82 31.31,423.69 25.07,196.37 37.33,604.73 70.1,839.83 37.82,270.74 69.12,1006.43 106.45,1258.63 42.51,287.13 43.21,635.33 70.1,839.89 50.92,388.4 61.7,888.99 114.71,1250.22 20.8,141.75 12.19,281.18 30.89,424.11 33.89,259.62 36.63,559.56 75.56,834.44 57.85,408.78 86,1277.96 145.46,1692.68 39.92,278.03 36.28,556.62 75.63,834.37 39.57,279.78 32.57,559.07 72.84,837.17 32.7,225.78 66.74,971.42 103.64,1261.28 64.58,506.05 88.88,1158.41 143.64,1676.37l36 419c28.01,261.99 70.1,572.8 70.1,858.11z"/>
    <path class="fil2" d="M9418.79 7272.04l8267.65 0 -145.53 1656.2 -3288.29 1643.38c-35.22,24.79 -26.12,5.95 -41.8,49.16l3184.5 0 -110.3 1236.56c-15.48,202.05 -38.45,407.74 -54.84,618.46 -42.3,543.17 -140.34,1358.98 -162.54,1875.89 -11.63,269.97 -109.04,1035.57 -109.04,1255.89 -61.63,29.62 -120.81,37.82 -196.44,58.41l-1495.89 414.8c-139.65,39.08 -280.9,83.27 -426.71,119.2l-1293 354.01 -3.22 1753.12 4282.74 -1158.97c44.97,-123.25 223.13,-2494.48 260.24,-2850.73 99.52,-954.75 166.4,-1919.24 255.69,-2876.17 178.65,-1914.68 351.77,-3838.61 511.58,-5759.04l-5310.88 -2.1 1.05 1601.85 -4124.97 10.08z"/>
    <path class="fil3" d="M12300.2 902.04l0 1492.39 1674.12 0 0 272.99 -1619.56 0c-41.89,0 -54.56,12.67 -54.56,54.62l0 618.81 2347.41 0 0 -1492.4c0,-41.95 -12.68,-54.62 -54.63,-54.62l-1619.49 0 0 -272.99 1674.12 0 0 -618.8c0,-41.95 -12.68,-54.63 -54.63,-54.63l-2238.22 0c-41.89,0 -54.56,12.68 -54.56,54.63z"/>
    <path class="fil3" d="M14993.28 902.04l0 1492.39 1674.12 0 0 272.99 -1619.49 0c-41.95,0 -54.63,12.67 -54.63,54.62l0 618.81 2292.86 0c41.95,0 54.55,-12.68 54.55,-54.63l0 -1437.77c0,-41.95 -12.6,-54.62 -54.55,-54.62l-1619.57 0 0 -272.99 1619.57 0c41.95,0 54.55,-12.67 54.55,-54.62l0 -564.18c0,-41.95 -12.6,-54.63 -54.55,-54.63l-2238.23 0c-41.95,0 -54.63,12.68 -54.63,54.63z"/>
    <path class="fil4" d="M13550.83 14897.8c137.62,-28.36 312.21,-87.33 445.41,-123.68 159.18,-43.34 308.63,-87.33 454.92,-127.38 137.06,-37.54 843.12,-238.53 924.29,-240.36l75.5 -1052.86c6.79,-62.75 11.83,-173.05 23.17,-249.81l46.93 -826.73 -1974.21 0 3.99 2620.82z"/>
    <path class="fil3" d="M9607.04 902.04l0 2384.18c0,41.95 12.68,54.63 54.56,54.63l2292.85 0 0 -618.81c0,-41.95 -12.68,-54.62 -54.63,-54.62l-1619.49 0 0 -1146.58 1674.12 0 0 -618.8c0,-41.95 -12.68,-54.63 -54.63,-54.63l-2238.22 0c-41.88,0 -54.56,12.68 -54.56,54.63z"/>
   </g>
  </g>
 </g>
</svg>
