<?xml version="1.0" encoding="UTF-8"?>
<!DOCTYPE svg PUBLIC "-//W3C//DTD SVG 1.1//EN" "http://www.w3.org/Graphics/SVG/1.1/DTD/svg11.dtd">
<!-- Creator: CorelDRAW 2018 (64-Bit Evaluation Version) -->
<svg xmlns="http://www.w3.org/2000/svg" xml:space="preserve" width="270.933mm" height="203.2mm" version="1.1" style="shape-rendering:geometricPrecision; text-rendering:geometricPrecision; image-rendering:optimizeQuality; fill-rule:evenodd; clip-rule:evenodd"
viewBox="0 0 27093.32 20320"
 xmlns:xlink="http://www.w3.org/1999/xlink">
 <defs>
  <style type="text/css">
   <![CDATA[
    .fil3 {fill:black}
    .fil1 {fill:#E02E00}
    .fil2 {fill:#F34000}
    .fil0 {fill:white}
   ]]>
  </style>
 </defs>
 <g id="Layer_x0020_1">
  <metadata id="CorelCorpID_0Corel-Layer"/>
  <g id="_2412086736368">
   <rect class="fil0" x="8693.8" y="5829.57" width="10423.23" height="10761.97"/>
   <g>
    <path class="fil1" d="M13548.45 16547.42c-82.21,-18.19 -133.35,-37.22 -213.53,-61.15l-2351.8 -647.86c-144.19,-37.78 -274.89,-78.36 -429.02,-116.34 -148.74,-36.66 -281.67,-86.62 -425.3,-120.13l-199.95 -2527.27 1690.65 0 44.01 646.87c12.31,82 25.05,244.25 28.54,316.94 6.3,131.59 18.33,211.21 18.33,345.26 54.58,26.24 155.25,41.42 228.64,62.27 78.43,22.25 159.8,41.28 228.08,62.76 150.21,47.29 307.42,83.81 454.41,127.4l927.08 256.69 -2.17 -2618.22 -3690.27 0 -307.7 -3419.58c-9.58,-124.33 -13.35,-196.88 -19.58,-325.82l-55.7 -617c-15.53,-204.57 -35.46,-419.29 -58.2,-637.57 37.57,-23.16 33.02,-22.04 131.32,-21.9l891.54 1.19c963.39,0 2209.5,31.62 3108.66,-1.47l-1.47 -1587.61 5302.01 -1.11 -1012.5 11470.85 -4288.11 1158.79 2.03 -1745.99zm-2.03 2909.13c56.46,0 201.29,-47.44 262.43,-64.86 99.21,-28.4 171.9,-45.33 271.25,-74.16l4872.64 -1362.95c66.12,-32.6 41.63,-32.32 51.91,-111.73 48.21,-374.16 67.24,-938.69 112.37,-1251.29 13.92,-96.68 16.72,-235.07 25.67,-319.73l57.37 -615.32c20.71,-429.85 76.61,-842.43 107.89,-1255.76 33.44,-440.7 104.8,-1437.33 159.79,-1858.36 40.16,-307 62.89,-954.09 103.62,-1241.85 29.73,-210.37 27.14,-408.09 49.6,-623.09l111.31 -1252.34c51.7,-393.11 63.04,-824.02 107.18,-1238.27 43.17,-405.71 75.22,-834.93 107.19,-1256.46 15.39,-203.52 42.74,-398.93 53.38,-619.39 15.46,-321.2 86.26,-866.98 109,-1236.38l40.72 -471.48c5.39,-47.44 38.48,-110.33 -40.72,-110.33l-13125.13 0c-77.38,0 -48.76,75.35 -35.19,253.33l406.42 4666.32c43.65,300.29 68,909.87 104.1,1241.35 42.89,395.09 67.66,912.32 111.46,1252.14 53.24,413.12 88.29,1060.77 137.47,1535.26 12.45,119.92 13.08,202.55 22.25,323.16 47.43,624.14 119.43,1227.99 163.01,1873.33l108.45 1237.02c5.17,207.16 51.7,415.08 54.43,618.26 6.22,450.63 21.83,447.76 185.54,487.22l2116.52 592.23c88.78,29.25 163.78,45.76 254.88,72.35 97.94,28.61 174.2,50.16 268.44,77.03l2664.75 734.75z"/>
    <path class="fil2" d="M9414.97 7274.67l8258.08 0c0,232.62 -92.35,1016.21 -109.56,1326.7 -3.92,70.18 -16.79,89.62 -17.64,164.2 -2.37,202.27 46.46,163.65 -381.78,163.65l-3616.6 0 0.42 1672.75 3834.32 0c0,120.26 -10.35,189.04 -19.59,307.69l-86.82 931.35c-37.22,350.58 -62.54,913.65 -106.55,1257.02 -40.65,317.43 -65.98,929.74 -109.28,1254.37l-54.51 618.19c-27.35,209.61 -16.44,446.36 -59.54,631.35 -61.84,29.66 -120.61,37.71 -196.38,58.2l-2348.59 651.01c-283.63,74.38 -569.22,166.58 -852.5,236.27l-2.03 1745.99 4288.11 -1158.79 1012.5 -11470.85 -5302.01 1.11 1.47 1587.61c-899.16,33.09 -2145.27,1.47 -3108.66,1.47l-891.54 -1.19c-98.3,-0.14 -93.75,-1.26 -131.32,21.9z"/>
    <path class="fil3" d="M15637.06 874.59l-563.55 909.1c-53.25,-38.97 -543.97,-835.7 -563.56,-909.1l-654.78 -0.35c-84.03,-1.12 -181.49,-24.27 -181.49,54.92l0 2363.63c0,41.91 12.67,54.57 54.58,54.57l763.5 0 0 -1200c44.5,32.6 239.56,365.55 285.1,442.1 62.55,105.01 259.35,395.5 278.46,467 61.35,-41.14 108.02,-139.86 151.11,-212.55 58.35,-98.44 380.39,-641.63 430.63,-678.36l-0.07 927.22c-0.5,324.97 -140.42,254.59 818.07,254.59l0 -2436.39c0,-76.05 -65.55,-38.55 -144.05,-36.31l-673.95 -0.07z"/>
    <path class="fil3" d="M9837.97 910.97l0 818.15 -854.39 0 0 -854.53 -818.08 0 0 2472.77 818.08 0 0 -800.02 854.39 0 0 800.02 818 0 0 -2472.77 -745.31 0c-44.43,0 -72.69,-40.29 -72.69,36.38z"/>
    <path class="fil2" d="M13548.59 14892.86c146.5,-36.17 303.29,-88.29 452.24,-127.4 153.22,-40.16 302.17,-84.17 454.55,-127.19l927.15 -254.53c0,-116.13 16.23,-158.68 18.54,-254.18 8.89,-372.69 82.35,-969.96 90.89,-1327.26 4.33,-182.67 36.02,-355.41 36.02,-527.66l-1981.56 0 2.17 2618.22z"/>
    <path class="fil1" d="M13547.89 10601.97l-0.42 -1672.75 -2218.88 0 110.12 1599.84c13.65,111.46 36.46,77.94 142.8,73.32 630.37,-27.63 1328.46,-0.41 1966.38,-0.41z"/>
    <path class="fil3" d="M13255.59 874.59l-2254.21 0 0 800.03 672.62 0c41.91,0 54.57,12.66 54.57,54.5l0 1618.24 799.89 0 0 -1618.24c0,-41.84 12.6,-54.5 54.5,-54.5l745.32 0 0 -763.65c0,-76.67 -28.27,-36.38 -72.69,-36.38z"/>
    <path class="fil3" d="M16800.47 3347.36l1981.49 0 0 -763.64c0,-41.91 -12.66,-54.57 -54.5,-54.57l-1108.91 0 0 -1654.56 -818.08 0 0 2472.77z"/>
   </g>
  </g>
 </g>
</svg>
