<?xml version="1.0" encoding="UTF-8"?>
<!DOCTYPE svg PUBLIC "-//W3C//DTD SVG 1.1//EN" "http://www.w3.org/Graphics/SVG/1.1/DTD/svg11.dtd">
<!-- Creator: CorelDRAW 2018 (64-Bit Evaluation Version) -->
<svg xmlns="http://www.w3.org/2000/svg" xml:space="preserve" width="270.933mm" height="203.2mm" version="1.1" style="shape-rendering:geometricPrecision; text-rendering:geometricPrecision; image-rendering:optimizeQuality; fill-rule:evenodd; clip-rule:evenodd"
viewBox="0 0 27093.32 20320"
 xmlns:xlink="http://www.w3.org/1999/xlink">
 <defs>
  <style type="text/css">
   <![CDATA[
    .fil3 {fill:black}
    .fil1 {fill:#E4BD00}
    .fil2 {fill:#FFD800}
    .fil0 {fill:white}
   ]]>
  </style>
 </defs>
 <g id="Layer_x0020_1">
  <metadata id="CorelCorpID_0Corel-Layer"/>
  <g id="_2412080006016">
   <rect class="fil0" x="8693.62" y="5671.25" width="10154.38" height="11357.61"/>
   <g>
    <path class="fil1" d="M9041.5 13953.82c203.53,47.43 416.08,114.8 625.75,174.13l1588.31 429.65c75.49,20.56 250.89,80.45 330.99,87.17l0 -7363.68 1454.32 0 0 9272.76c-520.94,-121.39 -1205.04,-331.2 -1745.09,-472.81 -89.76,-23.51 -171.68,-52.2 -256.13,-71.15l-1998.15 -546.97 0 -1509.1zm4505.7 -8281.11l5300.75 -1.4c-150.07,1907.54 -347.02,3834.11 -509.05,5738.78 -16.65,195.69 -483.79,5683.94 -517.31,5724.94 -100.46,66.47 -874.12,245.08 -1064.55,300.64 -672.56,196.24 -1451.53,388.22 -2144.59,579.43 -341.35,94.24 -721.03,213.87 -1063.92,286.92l-1.33 -12629.31zm-5451.03 12281.17c64.85,5.39 104.31,26.1 174.48,43.73l1039.93 287.13c623.58,170.15 1287.68,378.21 1916.15,538.08 658.91,167.56 1432.92,419.71 2101.13,589.44 54.36,13.78 119.01,35.19 169.39,49.47 93.11,26.3 747.27,-183.52 868.44,-219.13l4548.38 -1269.13c91.09,-23.79 82.06,-22.25 92.28,-125.86l52.26 -620.51c17.28,-311.54 107.95,-1015.02 108.51,-1236.87 0.77,-267.82 69.19,-552.64 72.83,-818.08 3.78,-271.81 64.23,-569.64 72.62,-836.55l210.46 -2462.21c40.51,-278.38 32.73,-557.88 72.69,-836.4 31.55,-219.62 42.88,-638.42 67.23,-823.68 56.53,-430.84 93.33,-1159.36 143.35,-1638.47 27.92,-266.91 49.4,-555.64 71.23,-837.87 10.21,-132.44 27.91,-249.28 35.12,-401.24 19.31,-406.07 140.7,-1299.91 145.38,-1636.37 1.96,-143.28 30.23,-281.25 36.1,-418.44l54.86 -618.55c5.45,-96.4 39.24,-163.15 -36.53,-163.15l-13125.21 0c-87.87,0 -45.9,97.45 -39.74,147.62 8.96,73.32 12.74,161.48 18.82,218.77 15.53,147.14 22.11,288.04 36.03,418.52 14.77,138.53 18.12,296.72 34.42,420.13 9.24,70.18 5.39,132.79 15.4,202.75 52.61,368.22 133.27,1429.84 170,1902.72l252.86 2947.19c14.76,139.09 33.16,304.76 39.39,433.28 23.08,478.76 104.87,1188.33 144.05,1692.27 86.19,1107.38 218.42,2298.29 291.6,3381.1 18.61,275.38 57.86,566.91 72.83,836.27 7.84,141.33 29.04,286.22 36.39,418.17 8.39,151.89 36.87,288.53 36.87,435.87z"/>
    <path class="fil2" d="M18058.21 8717.43l-2563.24 0 0 2545.47 592.24 -80.39c214.43,-29.95 382.27,-59.12 602.45,-88.43 215.91,-28.69 1063.02,-176.59 1204.98,-176.59l-49.33 532.42c-103.82,805.48 -147.27,1877.39 -254.81,2708.89 -45.82,354.44 -70.24,966.33 -117.81,1354.84 -14.56,118.59 -34.07,111.31 -152.24,138.67l-3261.61 901.54 0 -1509.1c45.12,-21.62 60.1,-14.98 115.51,-29.95l1779.09 -493.38c32.95,-9.3 217.31,-54.78 229.62,-61.21 58.83,-30.79 32.46,-5.81 45.96,-99.49l76.26 -705.58c25.26,-184.56 37.71,-370.87 58.91,-541.02l57.93 -560.27 -1760.55 275.52c-170.15,24.2 -418.87,88.08 -602.73,88.08l0 -5636.36 4126.63 0c0,300.56 -72.34,749.02 -90.32,1073.23 -7.14,127.89 -34.49,253.2 -36.94,363.11zm-4509.68 9584.59c342.89,-73.05 722.57,-192.68 1063.92,-286.92 693.06,-191.21 1472.03,-383.19 2144.59,-579.43 190.43,-55.56 964.09,-234.17 1064.55,-300.64 33.52,-41 500.66,-5529.25 517.31,-5724.94 162.03,-1904.67 358.98,-3831.24 509.05,-5738.78l-5300.75 1.4 1.33 12629.31z"/>
    <path class="fil3" d="M13458.97 881.01l0 1527.29 1672.47 0 0 272.72 -1617.96 0c-41.84,0 -54.51,12.66 -54.51,54.57l0 618.19 2345.1 0 0 -1490.91c0,-41.91 -12.67,-54.57 -54.57,-54.57l-1617.9 0 0 -272.72 1672.47 0 0 -618.19c0,-41.91 -12.67,-54.57 -54.57,-54.57 -278.8,0 -2181.73,-24.07 -2290.53,18.19z"/>
    <path class="fil3" d="M12440.94 881.01l0 1800.01 -1072.53 0 0 600c0,44.43 -40.37,72.76 36.31,72.76l1708.85 0 0 -2436.39c0,-41.91 -12.66,-54.57 -54.57,-54.57 -116.91,0 -531.37,-15.46 -618.06,18.19z"/>
   </g>
  </g>
 </g>
</svg>
